/* XPM */
static char * lego_s_xpm[] = {
"128 128 3 1",
" 	c #F2F3F2",
".	c #000000",
"+	c #C4281B",
"                                 ..                                                              ..                             ",
"                                 ..                                                              ..                             ",
"                                 ..                                                              ..                             ",
"                                 ..                                                              ..                             ",
"................................................................................................................................",
"................................................................................................................................",
"..+++++++++++++++++++++++++++++++++++++++++++++++++++++++++++++++..+++++++++++++++++++++++++++++++++++++++++++++++++++++++++++++",
"..+++++++++++++++++++++++++++++++++++++++++++++++++++++++++++++++..+++++++++++++++++++++++++++++++++++++++++++++++++++++++++++++",
"..+++++++++++++++++++++++++++++++++++++++++++++++++++++++++++++++..+++++++++++++++++++++++++++++++++++++++++++++++++++++++++++++",
"..+++++++++++++++++++++++++++++++++++++++++++++++++++++++++++++++..+++++++++++++++++++++++++++++++++++++++++++++++++++++++++++++",
"..+++++++++++++++++++++++++++++++++++++++++++++++++++++++++++++++..+++++++++++++++++++++++++++++++++++++++++++++++++++++++++++++",
"..+++++++++++++++++++++++++++++++++++++++++++++++++++++++++++++++..+++++++++++++++++++++++++++++++++++++++++++++++++++++++++++++",
"..+++++++++++++++++++++++++++++++++++++++++++++++++++++++++++++++..+++++++++++++++++++++++++++++++++++++++++++++++++++++++++++++",
"..+++++++++++++++++++++++++++++++++++++++++++++++++++++++++++++++..+++++++++++++++++++++++++++++++++++++++++++++++++++++++++++++",
"..+++++++++++++++++++++++++++++++++++++++++++++++++++++++++++++++..+++++++++++++++++++++++++++++++++++++++++++++++++++++++++++++",
"..+++++++++++++++++++++++++++++++++++++++++++++++++++++++++++++++..+++++++++++++++++++++++++++++++++++++++++++++++++++++++++++++",
"..+++++++++++++++++++++++++++++++++++++++++++++++++++++++++++++++..+++++++++++++++++++++++++++++++++++++++++++++++++++++++++++++",
"..+++++++++++++++++++++++++++++++++++++++++++++++++++++++++++++++..+++++++++++++++++++++++++++++++++++++++++++++++++++++++++++++",
"..+++++++++++++++++++++++++++++++++++++++++++++++++++++++++++++++..+++++++++++++++++++++++++++++++++++++++++++++++++++++++++++++",
"..+++++++++++++++++++++++++++++++++++++++++++++++++++++++++++++++..+++++++++++++++++++++++++++++++++++++++++++++++++++++++++++++",
"..+++++++++++++++++++++++++++++++++++++++++++++++++++++++++++++++..+++++++++++++++++++++++++++++++++++++++++++++++++++++++++++++",
"..+++++++++++++++++++++++++++++++++++++++++++++++++++++++++++++++..+++++++++++++++++++++++++++++++++++++++++++++++++++++++++++++",
"..+++++++++++++++++++++++++++++++++++++++++++++++++++++++++++++++..+++++++++++++++++++++++++++++++++++++++++++++++++++++++++++++",
"................................................................................................................................",
"................................................................................................................................",
"+++++++++++++++++++++++++++++++++..++++++++++++++++++++++++++++++++++++++++++++++++++++++++++++++..+++++++++++++++++++++++++++++",
"+++++++++++++++++++++++++++++++++..++++++++++++++++++++++++++++++++++++++++++++++++++++++++++++++..+++++++++++++++++++++++++++++",
"+++++++++++++++++++++++++++++++++..++++++++++++++++++++++++++++++++++++++++++++++++++++++++++++++..+++++++++++++++++++++++++++++",
"+++++++++++++++++++++++++++++++++..++++++++++++++++++++++++++++++++++++++++++++++++++++++++++++++..+++++++++++++++++++++++++++++",
"+++++++++++++++++++++++++++++++++..++++++++++++++++++++++++++++++++++++++++++++++++++++++++++++++..+++++++++++++++++++++++++++++",
"+++++++++++++++++++++++++++++++++..++++++++++++++++++++++++++++++++++++++++++++++++++++++++++++++..+++++++++++++++++++++++++++++",
"+++++++++++++++++++++++++++++++++..++++++++++++++++++++++++++++++++++++++++++++++++++++++++++++++..+++++++++++++++++++++++++++++",
"+++++++++++++++++++++++++++++++++..++++++++++++++++++++++++++++++++++++++++++++++++++++++++++++++..+++++++++++++++++++++++++++++",
"+++++++++++++++++++++++++++++++++..++++++++++++++++++++++++++++++++++++++++++++++++++++++++++++++..+++++++++++++++++++++++++++++",
"+++++++++++++++++++++++++++++++++..++++++++++++++++++++++++++++++++++++++++++++++++++++++++++++++..+++++++++++++++++++++++++++++",
"+++++++++++++++++++++++++++++++++..++++++++++++++++++++++++++++++++++++++++++++++++++++++++++++++..+++++++++++++++++++++++++++++",
"+++++++++++++++++++++++++++++++++..++++++++++++++++++++++++++++++++++++++++++++++++++++++++++++++..+++++++++++++++++++++++++++++",
"+++++++++++++++++++++++++++++++++..++++++++++++++++++++++++++++++++++++++++++++++++++++++++++++++..+++++++++++++++++++++++++++++",
"+++++++++++++++++++++++++++++++++..++++++++++++++++++++++++++++++++++++++++++++++++++++++++++++++..+++++++++++++++++++++++++++++",
"+++++++++++++++++++++++++++++++++..++++++++++++++++++++++++++++++++++++++++++++++++++++++++++++++..+++++++++++++++++++++++++++++",
"+++++++++++++++++++++++++++++++++..++++++++++++++++++++++++++++++++++++++++++++++++++++++++++++++..+++++++++++++++++++++++++++++",
"+++++++++++++++++++++++++++++++++..++++++++++++++++++++++++++++++++++++++++++++++++++++++++++++++..+++++++++++++++++++++++++++++",
"+++++++++++++++++++++++++++++++++..++++++++++++++++++++++++++++++++++++++++++++++++++++++++++++++..+++++++++++++++++++++++++++++",
"................................................................................................................................",
"................................................................................................................................",
"..+++++++++++++++++++++++++++++++++++++++++++++++++++++++++++++++..+++++++++++++++++++++++++++++++++++++++++++++++++++++++++++++",
"..+++++++++++++++++++++++++++++++++++++++++++++++++++++++++++++++..+++++++++++++++++++++++++++++++++++++++++++++++++++++++++++++",
"..+++++++++++++++++++++++++++++++++++++++++++++++++++++++++++++++..+++++++++++++++++++++++++++++++++++++++++++++++++++++++++++++",
"..+++++++++++++++++++++++++++++++++++++++++++++++++++++++++++++++..+++++++++++++++++++++++++++++++++++++++++++++++++++++++++++++",
"..+++++++++++++++++++++++++++++++++++++++++++++++++++++++++++++++..+++++++++++++++++++++++++++++++++++++++++++++++++++++++++++++",
"..+++++++++++++++++++++++++++++++++++++++++++++++++++++++++++++++..+++++++++++++++++++++++++++++++++++++++++++++++++++++++++++++",
"..+++++++++++++++++++++++++++++++++++++++++++++++++++++++++++++++..+++++++++++++++++++++++++++++++++++++++++++++++++++++++++++++",
"..+++++++++++++++++++++++++++++++++++++++++++++++++++++++++++++++..+++++++++++++++++++++++++++++++++++++++++++++++++++++++++++++",
"..+++++++++++++++++++++++++++++++++++++++++++++++++++++++++++++++..+++++++++++++++++++++++++++++++++++++++++++++++++++++++++++++",
"..+++++++++++++++++++++++++++++++++++++++++++++++++++++++++++++++..+++++++++++++++++++++++++++++++++++++++++++++++++++++++++++++",
"..+++++++++++++++++++++++++++++++++++++++++++++++++++++++++++++++..+++++++++++++++++++++++++++++++++++++++++++++++++++++++++++++",
"..+++++++++++++++++++++++++++++++++++++++++++++++++++++++++++++++..+++++++++++++++++++++++++++++++++++++++++++++++++++++++++++++",
"..+++++++++++++++++++++++++++++++++++++++++++++++++++++++++++++++..+++++++++++++++++++++++++++++++++++++++++++++++++++++++++++++",
"..+++++++++++++++++++++++++++++++++++++++++++++++++++++++++++++++..+++++++++++++++++++++++++++++++++++++++++++++++++++++++++++++",
"..+++++++++++++++++++++++++++++++++++++++++++++++++++++++++++++++..+++++++++++++++++++++++++++++++++++++++++++++++++++++++++++++",
"..+++++++++++++++++++++++++++++++++++++++++++++++++++++++++++++++..+++++++++++++++++++++++++++++++++++++++++++++++++++++++++++++",
"..+++++++++++++++++++++++++++++++++++++++++++++++++++++++++++++++..+++++++++++++++++++++++++++++++++++++++++++++++++++++++++++++",
"..+++++++++++++++++++++++++++++++++++++++++++++++++++++++++++++++..+++++++++++++++++++++++++++++++++++++++++++++++++++++++++++++",
"................................................................................................................................",
"................................................................................................................................",
"+++++++++++++++++++++++++++++++++..++++++++++++++++++++++++++++++++++++++++++++++++++++++++++++++..+++++++++++++++++++++++++++++",
"+++++++++++++++++++++++++++++++++..++++++++++++++++++++++++++++++++++++++++++++++++++++++++++++++..+++++++++++++++++++++++++++++",
"+++++++++++++++++++++++++++++++++..++++++++++++++++++++++++++++++++++++++++++++++++++++++++++++++..+++++++++++++++++++++++++++++",
"+++++++++++++++++++++++++++++++++..++++++++++++++++++++++++++++++++++++++++++++++++++++++++++++++..+++++++++++++++++++++++++++++",
"+++++++++++++++++++++++++++++++++..++++++++++++++++++++++++++++++++++++++++++++++++++++++++++++++..+++++++++++++++++++++++++++++",
"+++++++++++++++++++++++++++++++++..++++++++++++++++++++++++++++++++++++++++++++++++++++++++++++++..+++++++++++++++++++++++++++++",
"+++++++++++++++++++++++++++++++++..++++++++++++++++++++++++++++++++++++++++++++++++++++++++++++++..+++++++++++++++++++++++++++++",
"+++++++++++++++++++++++++++++++++..++++++++++++++++++++++++++++++++++++++++++++++++++++++++++++++..+++++++++++++++++++++++++++++",
"+++++++++++++++++++++++++++++++++..++++++++++++++++++++++++++++++++++++++++++++++++++++++++++++++..+++++++++++++++++++++++++++++",
"+++++++++++++++++++++++++++++++++..++++++++++++++++++++++++++++++++++++++++++++++++++++++++++++++..+++++++++++++++++++++++++++++",
"+++++++++++++++++++++++++++++++++..++++++++++++++++++++++++++++++++++++++++++++++++++++++++++++++..+++++++++++++++++++++++++++++",
"+++++++++++++++++++++++++++++++++..++++++++++++++++++++++++++++++++++++++++++++++++++++++++++++++..+++++++++++++++++++++++++++++",
"+++++++++++++++++++++++++++++++++..++++++++++++++++++++++++++++++++++++++++++++++++++++++++++++++..+++++++++++++++++++++++++++++",
"+++++++++++++++++++++++++++++++++..++++++++++++++++++++++++++++++++++++++++++++++++++++++++++++++..+++++++++++++++++++++++++++++",
"+++++++++++++++++++++++++++++++++..++++++++++++++++++++++++++++++++++++++++++++++++++++++++++++++..+++++++++++++++++++++++++++++",
"+++++++++++++++++++++++++++++++++..++++++++++++++++++++++++++++++++++++++++++++++++++++++++++++++..+++++++++++++++++++++++++++++",
"+++++++++++++++++++++++++++++++++..++++++++++++++++++++++++++++++++++++++++++++++++++++++++++++++..+++++++++++++++++++++++++++++",
"+++++++++++++++++++++++++++++++++..++++++++++++++++++++++++++++++++++++++++++++++++++++++++++++++..+++++++++++++++++++++++++++++",
"................................................................................................................................",
"................................................................................................................................",
"..+++++++++++++++++++++++++++++++++++++++++++++++++++++++++++++++..+++++++++++++++++++++++++++++++++++++++++++++++++++++++++++++",
"..+++++++++++++++++++++++++++++++++++++++++++++++++++++++++++++++..+++++++++++++++++++++++++++++++++++++++++++++++++++++++++++++",
"..+++++++++++++++++++++++++++++++++++++++++++++++++++++++++++++++..+++++++++++++++++++++++++++++++++++++++++++++++++++++++++++++",
"..+++++++++++++++++++++++++++++++++++++++++++++++++++++++++++++++..+++++++++++++++++++++++++++++++++++++++++++++++++++++++++++++",
"..+++++++++++++++++++++++++++++++++++++++++++++++++++++++++++++++..+++++++++++++++++++++++++++++++++++++++++++++++++++++++++++++",
"..+++++++++++++++++++++++++++++++++++++++++++++++++++++++++++++++..+++++++++++++++++++++++++++++++++++++++++++++++++++++++++++++",
"..+++++++++++++++++++++++++++++++++++++++++++++++++++++++++++++++..+++++++++++++++++++++++++++++++++++++++++++++++++++++++++++++",
"..+++++++++++++++++++++++++++++++++++++++++++++++++++++++++++++++..+++++++++++++++++++++++++++++++++++++++++++++++++++++++++++++",
"..+++++++++++++++++++++++++++++++++++++++++++++++++++++++++++++++..+++++++++++++++++++++++++++++++++++++++++++++++++++++++++++++",
"..+++++++++++++++++++++++++++++++++++++++++++++++++++++++++++++++..+++++++++++++++++++++++++++++++++++++++++++++++++++++++++++++",
"..+++++++++++++++++++++++++++++++++++++++++++++++++++++++++++++++..+++++++++++++++++++++++++++++++++++++++++++++++++++++++++++++",
"..+++++++++++++++++++++++++++++++++++++++++++++++++++++++++++++++..+++++++++++++++++++++++++++++++++++++++++++++++++++++++++++++",
"..+++++++++++++++++++++++++++++++++++++++++++++++++++++++++++++++..+++++++++++++++++++++++++++++++++++++++++++++++++++++++++++++",
"..+++++++++++++++++++++++++++++++++++++++++++++++++++++++++++++++..+++++++++++++++++++++++++++++++++++++++++++++++++++++++++++++",
"..+++++++++++++++++++++++++++++++++++++++++++++++++++++++++++++++..+++++++++++++++++++++++++++++++++++++++++++++++++++++++++++++",
"..+++++++++++++++++++++++++++++++++++++++++++++++++++++++++++++++..+++++++++++++++++++++++++++++++++++++++++++++++++++++++++++++",
"..+++++++++++++++++++++++++++++++++++++++++++++++++++++++++++++++..+++++++++++++++++++++++++++++++++++++++++++++++++++++++++++++",
"..+++++++++++++++++++++++++++++++++++++++++++++++++++++++++++++++..+++++++++++++++++++++++++++++++++++++++++++++++++++++++++++++",
"................................................................................................................................",
"................................................................................................................................",
"+++++++++++++++++++++++++++++++++..++++++++++++++++++++++++++++++++++++++++++++++++++++++++++++++..+++++++++++++++++++++++++++++",
"+++++++++++++++++++++++++++++++++..++++++++++++++++++++++++++++++++++++++++++++++++++++++++++++++..+++++++++++++++++++++++++++++",
"+++++++++++++++++++++++++++++++++..++++++++++++++++++++++++++++++++++++++++++++++++++++++++++++++..+++++++++++++++++++++++++++++",
"+++++++++++++++++++++++++++++++++..++++++++++++++++++++++++++++++++++++++++++++++++++++++++++++++..+++++++++++++++++++++++++++++",
"+++++++++++++++++++++++++++++++++..++++++++++++++++++++++++++++++++++++++++++++++++++++++++++++++..+++++++++++++++++++++++++++++",
"+++++++++++++++++++++++++++++++++..++++++++++++++++++++++++++++++++++++++++++++++++++++++++++++++..+++++++++++++++++++++++++++++",
"+++++++++++++++++++++++++++++++++..++++++++++++++++++++++++++++++++++++++++++++++++++++++++++++++..+++++++++++++++++++++++++++++",
"+++++++++++++++++++++++++++++++++..++++++++++++++++++++++++++++++++++++++++++++++++++++++++++++++..+++++++++++++++++++++++++++++",
"+++++++++++++++++++++++++++++++++..++++++++++++++++++++++++++++++++++++++++++++++++++++++++++++++..+++++++++++++++++++++++++++++",
"+++++++++++++++++++++++++++++++++..++++++++++++++++++++++++++++++++++++++++++++++++++++++++++++++..+++++++++++++++++++++++++++++",
"+++++++++++++++++++++++++++++++++..++++++++++++++++++++++++++++++++++++++++++++++++++++++++++++++..+++++++++++++++++++++++++++++",
"+++++++++++++++++++++++++++++++++..++++++++++++++++++++++++++++++++++++++++++++++++++++++++++++++..+++++++++++++++++++++++++++++",
"+++++++++++++++++++++++++++++++++..++++++++++++++++++++++++++++++++++++++++++++++++++++++++++++++..+++++++++++++++++++++++++++++",
"+++++++++++++++++++++++++++++++++..++++++++++++++++++++++++++++++++++++++++++++++++++++++++++++++..+++++++++++++++++++++++++++++",
"+++++++++++++++++++++++++++++++++..++++++++++++++++++++++++++++++++++++++++++++++++++++++++++++++..+++++++++++++++++++++++++++++",
"+++++++++++++++++++++++++++++++++..++++++++++++++++++++++++++++++++++++++++++++++++++++++++++++++..+++++++++++++++++++++++++++++",
"+++++++++++++++++++++++++++++++++..++++++++++++++++++++++++++++++++++++++++++++++++++++++++++++++..+++++++++++++++++++++++++++++",
"................................................................................................................................",
"................................................................................................................................",
"..                                                               ..                                                             ",
"..                                                               ..                                                             ",
"..                                                               ..                                                             ",
"..                                                               ..                                                             "};
