/* XPM */
static char * test2_xpm[] = {
"64 64 2 1",
" 	c #AD33CC",
".	c #CBCC33",
"                                                                ",
"                                                                ",
"                                                                ",
"                                                                ",
"                                                                ",
"                                                                ",
"                                                                ",
"                                                                ",
"                                                                ",
"                                                                ",
"                                                                ",
"                                                                ",
"                 .........................                      ",
"                 .........................                      ",
"                 .........................                      ",
"              ...                         ...                   ",
"              ...                         ...                   ",
"              ...                         ...                   ",
"           ...                               ...                ",
"           ...                               ...                ",
"           ...                               ...                ",
"        ...                                     ...             ",
"        ...                                     ...             ",
"        ...                                     ...             ",
"        ...                                                     ",
"        ...                                                     ",
"        ...                                                     ",
"        ...                                                     ",
"        ...                                                     ",
"        ...                                                     ",
"        ...                                                     ",
"        ...                                                     ",
"        ...                                                     ",
"        ...                                                     ",
"        ...                   ................                  ",
"        ...                   ................                  ",
"        ...                   ................                  ",
"        ...                                   ...               ",
"        ...                                   ...               ",
"        ...                                   ...               ",
"        ...                                   ...               ",
"        ...                                   ...               ",
"        ...                                   ...               ",
"        ...                                   ...               ",
"        ...                                   ...               ",
"        ...                                   ...               ",
"        ...                                   ...               ",
"        ...                                   ...               ",
"        ...                                   ...               ",
"        ...                                ...                  ",
"        ...                                ...                  ",
"        ...                                ...                  ",
"           ...                          ...                     ",
"           ...                          ...                     ",
"           ...                          ...                     ",
"              ..........................                        ",
"              ..........................                        ",
"              ..........................                        ",
"                                                                ",
"                                                                ",
"                                                                ",
"                                                                ",
"                                                                ",
"                                                                "};
