/* XPM */
static char * test1_xpm[] = {
"64 64 2 1",
" 	c #CC3333",
".	c #CCA633",
"                                                                ",
"                                                                ",
"                                                                ",
"                                                                ",
"                                                                ",
"                                                                ",
"                                                                ",
"                                                                ",
"                               ...                              ",
"                               ...                              ",
"                               ...                              ",
"                               ...                              ",
"                               ...                              ",
"                               ...                              ",
"                               ...                              ",
"                               ...                              ",
"                               ...                              ",
"                               ...                              ",
"                               ...                              ",
"                               ...                              ",
"                               ...                              ",
"                               ...                              ",
"                               ...                              ",
"                               ...                              ",
"                               ...                              ",
"                               ...                              ",
"                               ...                              ",
"                               ...                              ",
"                               ...                              ",
"                               ...                              ",
"                               ...                              ",
"        ................................................        ",
"        ................................................        ",
"        ................................................        ",
"                               ...                              ",
"                               ...                              ",
"                               ...                              ",
"                               ...                              ",
"                               ...                              ",
"                               ...                              ",
"                               ...                              ",
"                               ...                              ",
"                               ...                              ",
"                               ...                              ",
"                               ...                              ",
"                               ...                              ",
"                               ...                              ",
"                               ...                              ",
"                               ...                              ",
"                               ...                              ",
"                               ...                              ",
"                               ...                              ",
"                               ...                              ",
"                               ...                              ",
"                               ...                              ",
"                               ...                              ",
"                                                                ",
"                                                                ",
"                                                                ",
"                                                                ",
"                                                                ",
"                                                                ",
"                                                                ",
"                                                                "};
