/* XPM */
static char * test3_xpm[] = {
"64 64 2 1",
" 	c #33CC77",
".	c #3362CC",
"       ....                               ...                   ",
"       ....                               ...                   ",
"       ....                               ...                   ",
"       ....                               ...                   ",
"       ....                               ...                   ",
"       ....                               ...                   ",
"       ....                               ...                   ",
"       ....                               ...                   ",
"       ....                               ...                   ",
"       ....                               ...                   ",
"       ....                               ...                   ",
"       ..............................     ...                   ",
"       ..............................     ...                   ",
"       ..............................     ...                   ",
"       ..............................     ...                   ",
"       ....                               ...                   ",
"       ....                               ...                   ",
"       ....                               ...                   ",
"       ....                               ...                   ",
"       ....                               ...                   ",
"       ....                               ...                   ",
"       ....                               ...                   ",
"       ....                               ...                   ",
"       ....                               ...                   ",
"       ....                               ...                   ",
"       ....                               ...                   ",
"       ....                               ...                   ",
"       ....                               ...                   ",
"       ....                               ...                   ",
"       ....                               ...                   ",
"       ....                               ...                   ",
"       ....                               ...                   ",
"       ....                               ...                   ",
"       ....                               ...                   ",
"       ....                               ...                   ",
"       ....                               ...                   ",
"       ....                               ...                   ",
"       ....                               ...                   ",
"       ....                               ...                   ",
"       ....                               ...                   ",
"       ....                               ...                   ",
"       ....                               ...                   ",
"       ....                               ...                   ",
"       ....                               ...                   ",
"       ....                               ...                   ",
"       ....                               ...                   ",
"       ....                               ...                   ",
"       ....                               ...                   ",
"       ....                               ...                   ",
"       ....                               ...                   ",
"       ....                               ...                   ",
"       ....                               ...                   ",
"       ....                               ...                   ",
"       ....                               ...                   ",
"       ....                               ...                   ",
"       ....                               ...                   ",
"       ....                               ...                   ",
"       ....                               ...                   ",
"       ....                               ...                   ",
"       ....                               ...                   ",
"       ....                               ...                   ",
"       ....               ...................                   ",
"       ....               ...................                   ",
"       ....               ...................                   "};
